<?xml version="1.0" standalone="no"?><svg xmlns="http://www.w3.org/2000/svg" viewBox="0 0 1440 320"><path fill="#5000ca" fill-opacity="0.7" d="M0,192L34.3,202.7C68.6,213,137,235,206,208C274.3,181,343,107,411,80C480,53,549,75,617,96C685.7,117,754,139,823,165.3C891.4,192,960,224,1029,202.7C1097.1,181,1166,107,1234,96C1302.9,85,1371,139,1406,165.3L1440,192L1440,320L1405.7,320C1371.4,320,1303,320,1234,320C1165.7,320,1097,320,1029,320C960,320,891,320,823,320C754.3,320,686,320,617,320C548.6,320,480,320,411,320C342.9,320,274,320,206,320C137.1,320,69,320,34,320L0,320Z"></path></svg>